# Blender v2.79 (sub 0) OBJ File: 'medieval_contest.blend'
# www.blender.org
o Arrow_asset_Cube.001
v -0.013471 0.125370 0.013471
v -0.013471 0.125370 -0.013471
v 0.013471 0.125370 0.013471
v 0.013471 0.125370 -0.013471
v -0.018592 0.865106 0.018592
v -0.018592 0.865106 -0.018592
v 0.018592 0.865106 -0.018592
v 0.018592 0.865106 0.018592
v -0.016555 0.112998 0.016555
v -0.016555 0.112998 -0.016555
v 0.016555 0.112998 0.016555
v 0.016555 0.112998 -0.016555
v 0.000000 -0.002656 0.000000
v -0.033393 0.112998 -0.030113
v -0.033393 0.112998 0.030113
v 0.033393 0.112998 -0.030113
v 0.033393 0.112998 0.030113
v -0.022108 0.156356 -0.022108
v -0.022108 0.156356 0.022108
v 0.022108 0.156356 -0.022108
v 0.022108 0.156356 0.022108
v -0.061376 0.695853 -0.001873
v 0.066641 0.695853 -0.001873
v -0.061376 0.884628 -0.001873
v 0.066641 0.884628 -0.001873
v 0.002633 0.649812 -0.001873
v 0.002633 0.838586 -0.001873
v -0.061376 0.884628 0.001019
v -0.061376 0.695853 0.001019
v 0.002633 0.649812 0.001019
v 0.066641 0.695853 0.001019
v 0.066641 0.884628 0.001019
v 0.002633 0.838586 0.001019
v -0.061376 0.827217 -0.001873
v 0.066641 0.827217 -0.001873
v 0.002633 0.781176 -0.001873
v -0.061376 0.827217 0.001019
v 0.066641 0.827217 0.001019
v 0.002633 0.781176 0.001019
vt 0.159695 0.979983
vt 0.154098 0.776602
vt 0.194735 0.776602
vt 0.189138 0.979983
vt 0.067228 0.776602
vt 0.072825 0.979983
vt 0.032188 0.979983
vt 0.037785 0.776602
vt 0.119058 0.979983
vt 0.113461 0.776602
vt 0.154098 0.776602
vt 0.148501 0.979983
vt 0.194735 0.794232
vt 0.194735 0.786825
vt 0.224178 0.786825
vt 0.224178 0.794232
vt 0.235371 0.776602
vt 0.235371 0.786825
vt 0.194735 0.786825
vt 0.194735 0.776602
vt 0.078422 0.979983
vt 0.072825 0.776602
vt 0.113461 0.776602
vt 0.107865 0.979983
vt 0.700281 0.888714
vt 0.700281 0.911798
vt 0.667063 0.915670
vt 0.667063 0.884843
vt 0.633364 0.884317
vt 0.582463 0.884317
vt 0.607913 0.801163
vt 0.533447 0.813717
vt 0.582463 0.801163
vt 0.582463 0.887514
vt 0.628365 0.967997
vt 0.582463 0.967997
vt 0.605414 0.884317
vt 0.679266 0.884843
vt 0.633364 0.884843
vt 0.656315 0.801163
vt 0.820692 0.819971
vt 0.820678 0.861936
vt 0.799351 0.879114
vt 0.799378 0.802779
vt 0.862602 0.861951
vt 0.883917 0.879143
vt 0.862617 0.819986
vt 0.883943 0.802808
vt 0.799351 0.935212
vt 0.799351 0.879171
vt 0.855338 0.879170
vt 0.855338 0.935212
vt 0.533447 0.961032
vt 0.533447 0.937948
vt 0.566664 0.934077
vt 0.566664 0.964904
vt 0.666612 0.919541
vt 0.666612 0.942625
vt 0.633364 0.946496
vt 0.633364 0.915670
vt 0.699861 0.919541
vt 0.699861 0.942625
vt 0.666612 0.946496
vt 0.666612 0.915670
vt 0.621911 0.052380
vt 0.621911 0.122620
vt 0.543675 0.178950
vt 0.543675 0.108710
vt 0.700146 0.108710
vt 0.700147 0.178950
vt 0.611896 0.077235
vt 0.707179 0.109745
vt 0.707173 0.156787
vt 0.634373 0.158801
vt 0.529523 0.153347
vt 0.551527 0.200665
vt 0.788431 0.684659
vt 0.815569 0.578932
vt 0.817472 0.580220
vt 0.790756 0.685257
vt 0.709670 0.159241
vt 0.635243 0.162682
vt 0.550408 0.204353
vt 0.861643 0.551067
vt 0.911964 0.574563
vt 0.909933 0.576367
vt 0.861870 0.553482
vt 0.709670 0.109745
vt 0.948840 0.684311
vt 0.946010 0.685257
vt 0.525848 0.155115
vt 0.865928 0.656063
vt 0.901824 0.597810
vt 0.901824 0.656955
vt 0.861754 0.628104
vt 0.861754 0.568959
vt 0.821685 0.656955
vt 0.821685 0.597810
vn 0.0000 -0.0069 -1.0000
vn 1.0000 -0.0069 0.0000
vn 0.0000 -0.0069 1.0000
vn 0.0000 -1.0000 0.0000
vn 0.0000 1.0000 0.0000
vn -1.0000 -0.0069 0.0000
vn 0.9919 -0.1270 0.0000
vn 0.0000 -0.2520 0.9677
vn 0.0000 -0.2520 -0.9677
vn 0.9608 -0.2774 0.0000
vn -0.9608 -0.2774 0.0000
vn -0.9919 -0.1270 0.0000
vn 0.0000 -0.1270 0.9919
vn 0.0000 -0.1270 -0.9919
vn 0.0000 0.0000 -1.0000
vn 0.0000 -0.0000 1.0000
vn -1.0000 0.0000 0.0000
vn -0.8899 -0.4561 0.0000
vn -0.5839 0.8118 0.0000
vn 0.5839 0.8118 0.0000
vn 0.8899 -0.4561 0.0000
vn 1.0000 0.0000 0.0000
s 1
f 2/1/1 6/2/1 7/3/1 4/4/1
f 4/5/2 7/6/2 8/7/2 3/8/2
f 3/9/3 8/10/3 5/11/3 1/12/3
f 2/13/4 4/14/4 3/15/4 1/16/4
f 7/17/5 6/18/5 5/19/5 8/20/5
f 1/21/6 5/22/6 6/23/6 2/24/6
s 2
f 11/25/7 12/26/7 20/27/7 21/28/7
f 17/29/8 15/30/8 13/31/8
f 14/32/9 16/33/9 13/34/9
f 16/35/10 17/36/10 13/37/10
f 15/38/11 14/39/11 13/40/11
f 9/41/5 10/42/5 14/43/5 15/44/5
f 10/42/5 12/45/5 16/46/5 14/43/5
f 12/45/5 11/47/5 17/48/5 16/46/5
f 11/47/5 9/41/5 15/44/5 17/48/5
f 18/49/5 19/50/5 21/51/5 20/52/5
f 10/53/12 9/54/12 19/55/12 18/56/12
f 9/57/13 11/58/13 21/59/13 19/60/13
f 12/61/14 10/62/14 18/63/14 20/64/14
s 3
f 36/65/15 27/66/15 25/67/15 35/68/15
f 34/69/15 24/70/15 27/66/15 36/65/15
f 39/71/16 38/72/16 32/73/16 33/74/16
f 37/75/16 39/71/16 33/74/16 28/76/16
f 34/77/17 22/78/18 29/79/18 37/80/17
f 25/81/19 27/82/5 33/74/5 32/73/19
f 27/82/5 24/83/20 28/76/20 33/74/5
f 26/84/4 23/85/21 31/86/21 30/87/4
f 22/78/18 26/84/4 30/87/4 29/79/18
f 35/88/22 25/81/22 32/73/22 38/72/22
f 23/85/21 35/89/22 38/90/22 31/86/21
f 24/83/17 34/91/17 37/75/17 28/76/17
f 29/79/16 30/87/16 39/92/16 37/80/16
f 30/87/16 31/86/16 38/90/16 39/92/16
f 22/93/15 34/94/15 36/95/15 26/96/15
f 26/96/15 36/95/15 35/97/15 23/98/15
